<svg width="40" height="40" viewBox="0 0 40 40" fill="none" xmlns="http://www.w3.org/2000/svg">
<path d="M8.14896 27.2857H11.2242V22.1295H13.4686L16.2242 27.2857H19.6191L16.5296 21.6323C18.1845 20.9221 19.1007 19.4803 19.1007 17.4917C19.1007 14.6011 17.1902 12.7403 13.8876 12.7403H8.14896V27.2857ZM11.2242 19.6579V15.2545H13.2981C15.0737 15.2545 15.9331 16.0428 15.9331 17.4917C15.9331 18.9334 15.0737 19.6579 13.3123 19.6579H11.2242ZM29.1646 16.9235H32.112C32.0694 14.3312 29.9387 12.5414 26.7001 12.5414C23.5112 12.5414 21.1745 14.3028 21.1887 16.9448C21.1816 19.0897 22.6944 20.3184 25.1518 20.9079L26.7356 21.3056C28.3194 21.6891 29.2001 22.1437 29.2072 23.1238C29.2001 24.1891 28.1916 24.9136 26.6291 24.9136C25.0311 24.9136 23.8805 24.1749 23.7811 22.719H20.8052C20.8833 25.8653 23.1348 27.4917 26.6646 27.4917C30.2157 27.4917 32.3038 25.7942 32.3109 23.1309C32.3038 20.709 30.4785 19.4235 27.9501 18.8553L26.6433 18.5428C25.3791 18.2516 24.3208 17.7829 24.3421 16.7388C24.3421 15.8013 25.1731 15.1124 26.6788 15.1124C28.149 15.1124 29.0509 15.78 29.1646 16.9235Z" fill="#0E0E0E"/>
<rect x="1" y="1" width="38" height="38" rx="4" stroke="black" stroke-width="2"/>
</svg>
